# xmcd
#
# Track frame offsets: 
#        150
#        23309
#        56072
#        80017
#        106809
#        134206
#        169086
#        192226
#
# Disc length: 2804 seconds
#
# Revision: 0
# Processed by: cddbd v1.5.2PL0 Copyright (c) Steve Scherf et al.
# Submitted via: ExactAudioCopy v1.0b6
#
DISCID=660af208
DTITLE=Amanda Durán, Ricardo García Huidobro, Andrés Campos and Los de N
DTITLE=apoli - La Vi Llegar del Rock
DYEAR=2017
DGENRE=Blues
TTITLE0=La vi llegar del rock
TTITLE1=Misa para señoritas
TTITLE2=La última muerte
TTITLE3=El corazón goteando
TTITLE4=Despiertas
TTITLE5=Cantos a la perestroika
TTITLE6=El vagón mas hermoso
TTITLE7=Como quien llega del blues
EXTD=
EXTT0=
EXTT1=
EXTT2=
EXTT3=
EXTT4=
EXTT5=
EXTT6=
EXTT7=
PLAYORDER=
